<svg width="64" height="64" viewBox="0 0 64 64" fill="none" xmlns="http://www.w3.org/2000/svg">
<rect width="64" height="64" rx="4" fill="#334681"/>
<g filter="url(#filter0_d_2_2)">
<mask id="path-2-outside-1_2_2" maskUnits="userSpaceOnUse" x="9" y="16" width="43" height="32" fill="black">
<rect fill="white" x="9" y="16" width="43" height="32"/>
<path d="M19.0767 47L10.7528 17.9091H17.4716L22.2869 38.1222H22.5284L27.8409 17.9091H33.5938L38.892 38.1648H39.1477L43.9631 17.9091H50.6818L42.358 47H36.3636L30.8239 27.9801H30.5966L25.071 47H19.0767Z"/>
</mask>
<path d="M19.0767 47L10.7528 17.9091H17.4716L22.2869 38.1222H22.5284L27.8409 17.9091H33.5938L38.892 38.1648H39.1477L43.9631 17.9091H50.6818L42.358 47H36.3636L30.8239 27.9801H30.5966L25.071 47H19.0767Z" fill="black"/>
<path d="M19.0767 47L18.1301 47.2709L18.3343 47.9846H19.0767V47ZM10.7528 17.9091V16.9245H9.44698L9.80621 18.18L10.7528 17.9091ZM17.4716 17.9091L18.4294 17.6809L18.2492 16.9245H17.4716V17.9091ZM22.2869 38.1222L21.3291 38.3503L21.5093 39.1068H22.2869V38.1222ZM22.5284 38.1222V39.1068H23.2877L23.4807 38.3724L22.5284 38.1222ZM27.8409 17.9091V16.9245H27.0816L26.8886 17.6588L27.8409 17.9091ZM33.5938 17.9091L34.5463 17.6599L34.3539 16.9245H33.5938V17.9091ZM38.892 38.1648L37.9395 38.4139L38.1319 39.1494H38.892V38.1648ZM39.1477 38.1648V39.1494H39.9257L40.1056 38.3925L39.1477 38.1648ZM43.9631 17.9091V16.9245H43.1851L43.0051 17.6814L43.9631 17.9091ZM50.6818 17.9091L51.6284 18.18L51.9877 16.9245H50.6818V17.9091ZM42.358 47V47.9846H43.1004L43.3046 47.2709L42.358 47ZM36.3636 47L35.4183 47.2753L35.6249 47.9846H36.3636V47ZM30.8239 27.9801L31.7692 27.7048L31.5626 26.9955H30.8239V27.9801ZM30.5966 27.9801V26.9955H29.8573L29.6511 27.7054L30.5966 27.9801ZM25.071 47V47.9846H25.8103L26.0165 47.2747L25.071 47ZM19.0767 47L20.0233 46.7291L11.6995 17.6382L10.7528 17.9091L9.80621 18.18L18.1301 47.2709L19.0767 47ZM10.7528 17.9091V18.8937H17.4716V17.9091V16.9245H10.7528V17.9091ZM17.4716 17.9091L16.5138 18.1373L21.3291 38.3503L22.2869 38.1222L23.2447 37.894L18.4294 17.6809L17.4716 17.9091ZM22.2869 38.1222V39.1068H22.5284V38.1222V37.1375H22.2869V38.1222ZM22.5284 38.1222L23.4807 38.3724L28.7932 18.1594L27.8409 17.9091L26.8886 17.6588L21.5761 37.8719L22.5284 38.1222ZM27.8409 17.9091V18.8937H33.5938V17.9091V16.9245H27.8409V17.9091ZM33.5938 17.9091L32.6412 18.1583L37.9395 38.4139L38.892 38.1648L39.8446 37.9156L34.5463 17.6599L33.5938 17.9091ZM38.892 38.1648V39.1494H39.1477V38.1648V37.1802H38.892V38.1648ZM39.1477 38.1648L40.1056 38.3925L44.921 18.1368L43.9631 17.9091L43.0051 17.6814L38.1898 37.937L39.1477 38.1648ZM43.9631 17.9091V18.8937H50.6818V17.9091V16.9245H43.9631V17.9091ZM50.6818 17.9091L49.7352 17.6382L41.4113 46.7291L42.358 47L43.3046 47.2709L51.6284 18.18L50.6818 17.9091ZM42.358 47V46.0154H36.3636V47V47.9846H42.358V47ZM36.3636 47L37.309 46.7247L31.7692 27.7048L30.8239 27.9801L29.8785 28.2555L35.4183 47.2753L36.3636 47ZM30.8239 27.9801V26.9955H30.5966V27.9801V28.9647H30.8239V27.9801ZM30.5966 27.9801L29.6511 27.7054L24.1255 46.7253L25.071 47L26.0165 47.2747L31.5421 28.2548L30.5966 27.9801ZM25.071 47V46.0154H19.0767V47V47.9846H25.071V47Z" fill="white" mask="url(#path-2-outside-1_2_2)"/>
</g>
<defs>
<filter id="filter0_d_2_2" x="6.44702" y="16.4244" width="48.5408" height="37.0602" filterUnits="userSpaceOnUse" color-interpolation-filters="sRGB">
<feFlood flood-opacity="0" result="BackgroundImageFix"/>
<feColorMatrix in="SourceAlpha" type="matrix" values="0 0 0 0 0 0 0 0 0 0 0 0 0 0 0 0 0 0 127 0" result="hardAlpha"/>
<feOffset dy="2.5"/>
<feGaussianBlur stdDeviation="1.5"/>
<feComposite in2="hardAlpha" operator="out"/>
<feColorMatrix type="matrix" values="0 0 0 0 0.464604 0 0 0 0 0.522056 0 0 0 0 0.694411 0 0 0 0.25 0"/>
<feBlend mode="normal" in2="BackgroundImageFix" result="effect1_dropShadow_2_2"/>
<feBlend mode="normal" in="SourceGraphic" in2="effect1_dropShadow_2_2" result="shape"/>
</filter>
</defs>
</svg>
